<svg xmlns="http://www.w3.org/2000/svg" version="1.1" width="218" height="379" viewBox="0 0 218 379" id="SVG" style="stroke-width: 2px; font-size: 15px; shape-rendering: crispedges;"><path d="M 44.621552180470324 183.12256890882657 H 10.9 V108.92178185849677" fill="none" class="treeEdge trait_MQ==" id="node#114" stroke="red"></path><path d="M 74.62811883282319 213.003799234976 H 44.621552180470324 V183.12256890882657" fill="none" class="treeEdge trait_MQ==" id="node#115" stroke="red"></path><path d="M 80.79250795051176 213.003799234976 H 74.62811883282319 V213.003799234976" fill="none" class="treeEdge trait_MA==" id="node#116" stroke="blue"></path><path d="M 91.98864370008783 213.003799234976 H 80.79250795051176 V213.003799234976" fill="none" class="treeEdge trait_Mw==" id="node#117" stroke="purple"></path><path d="M 113.56450961965058 248.60431045321965 H 91.98864370008783 V213.003799234976" fill="none" class="treeEdge trait_Mw==" id="node#178" stroke="purple"></path><path d="M 119.99503801071762 248.60431045321965 H 113.56450961965058 V248.60431045321965" fill="none" class="treeEdge trait_MA==" id="node#179" stroke="blue"></path><path d="M 123.93984459871261 269.09986106391966 H 119.99503801071762 V248.60431045321965" fill="none" class="treeEdge trait_MA==" id="node#180" stroke="blue"></path><path d="M 129.20832355437864 296.1375807454267 H 123.93984459871261 V269.09986106391966" fill="none" class="treeEdge trait_MA==" id="node#227" stroke="blue"></path><path d="M 131.17321065367705 299.37083078219194 H 129.20832355437864 V296.1375807454267" fill="none" class="treeEdge trait_MA==" id="node#228" stroke="blue"></path><path d="M 135.09643690613078 303.15150408406896 H 131.17321065367705 V299.37083078219194" fill="none" class="treeEdge trait_MA==" id="node#229" stroke="blue"></path><path d="M 136.26739271638615 306.68411053034265 H 135.09643690613078 V303.15150408406896" fill="none" class="treeEdge trait_MA==" id="node#233" stroke="blue"></path><path d="M 136.79582704108242 309.7205832654097 H 136.26739271638615 V306.68411053034265" fill="none" class="treeEdge trait_MA==" id="node#235" stroke="blue"></path><path d="M 137.49255468385707 313.1077019638903 H 136.79582704108242 V309.7205832654097" fill="none" class="treeEdge trait_MA==" id="node#237" stroke="blue"></path><path d="M 158.2493688679251 317.19611258919787 H 137.49255468385707 V313.1077019638903" fill="none" class="treeEdge trait_MA==" id="node#238" stroke="blue"></path><path d="M 173.24805050657733 322.6871070681595 H 158.2493688679251 V317.19611258919787" fill="none" class="treeEdge trait_MA==" id="node#241" stroke="blue"></path><path d="M 176.5031143209931 328.968899175689 H 173.24805050657733 V322.6871070681595" fill="none" class="treeEdge trait_MA==" id="node#248" stroke="blue"></path><path d="M 179.3781767165596 333.4750030757874 H 176.5031143209931 V328.968899175689" fill="none" class="treeEdge trait_MA==" id="node#249" stroke="blue"></path><path d="M 181.38285575582697 336.4441006397638 H 179.3781767165596 V333.4750030757874" fill="none" class="treeEdge trait_MA==" id="node#250" stroke="blue"></path><path d="M 182.96368407163393 339.696468996063 H 181.38285575582697 V336.4441006397638" fill="none" class="treeEdge trait_MA==" id="node#251" stroke="blue"></path><path d="M 191.73249506444634 343.5153789370079 H 182.96368407163393 V339.696468996063" fill="none" class="treeEdge trait_MA==" id="node#253" stroke="blue"></path><path d="M 203.06893829899084 348.4673720472441 H 191.73249506444634 V343.5153789370079" fill="none" class="treeEdge trait_MA==" id="node#254" stroke="blue"></path><path d="M 203.69418224341084 353.6711614173229 H 203.06893829899084 V348.4673720472441" fill="none" class="treeEdge trait_MA==" id="node#260" stroke="blue"></path><path d="M 205.8094724997371 356.6927165354331 H 203.69418224341084 V353.6711614173229" fill="none" class="treeEdge trait_MA==" id="node#265" stroke="blue"></path><path d="M 206.72864998507322 358.70708661417325 H 205.8094724997371 V356.6927165354331" fill="none" class="treeEdge trait_MA==" id="node#267" stroke="blue"></path><path d="M 207.1 360.05 H 206.72864998507322 V358.70708661417325" fill="none" class="treeEdge trait_MA==" id="node#268" stroke="blue"></path><path d="M 207.1 357.3641732283465 H 206.72864998507322 V358.70708661417325" fill="none" class="treeEdge trait_MA==" id="node#269" stroke="blue"></path><path d="M 207.1 354.6783464566929 H 205.8094724997371 V356.6927165354331" fill="none" class="treeEdge trait_MA==" id="node#266" stroke="blue"></path><path d="M 205.06272005426533 350.6496062992126 H 203.69418224341084 V353.6711614173229" fill="none" class="treeEdge trait_MA==" id="node#261" stroke="blue"></path><path d="M 205.5757656547813 351.9925196850394 H 205.06272005426533 V350.6496062992126" fill="none" class="treeEdge trait_MA==" id="node#263" stroke="blue"></path><path d="M 207.1 351.9925196850394 H 205.5757656547813 V351.9925196850394" fill="none" class="treeEdge trait_MQ==" id="node#264" stroke="red"></path><path d="M 207.1 349.30669291338586 H 205.06272005426533 V350.6496062992126" fill="none" class="treeEdge trait_MA==" id="node#262" stroke="blue"></path><path d="M 203.96789088002947 343.26358267716535 H 203.06893829899084 V348.4673720472441" fill="none" class="treeEdge trait_MA==" id="node#255" stroke="blue"></path><path d="M 205.9834137684265 345.2779527559055 H 203.96789088002947 V343.26358267716535" fill="none" class="treeEdge trait_MA==" id="node#257" stroke="blue"></path><path d="M 207.1 346.6208661417323 H 205.9834137684265 V345.2779527559055" fill="none" class="treeEdge trait_MA==" id="node#258" stroke="blue"></path><path d="M 207.1 343.93503937007875 H 205.9834137684265 V345.2779527559055" fill="none" class="treeEdge trait_MA==" id="node#259" stroke="blue"></path><path d="M 207.1 341.2492125984252 H 203.96789088002947 V343.26358267716535" fill="none" class="treeEdge trait_MA==" id="node#256" stroke="blue"></path><path d="M 207.1 338.56338582677165 H 191.73249506444634 V343.5153789370079" fill="none" class="treeEdge trait_MA==" id="node#270" stroke="blue"></path><path d="M 183.94371809018932 335.8775590551181 H 182.96368407163393 V339.696468996063" fill="none" class="treeEdge trait_MA==" id="node#252" stroke="blue"></path><path d="M 183.94371809018932 333.1917322834646 H 181.38285575582697 V336.4441006397638" fill="none" class="treeEdge trait_MA==" id="node#271" stroke="blue"></path><path d="M 183.94371809018932 330.505905511811 H 179.3781767165596 V333.4750030757874" fill="none" class="treeEdge trait_MA==" id="node#272" stroke="blue"></path><path d="M 183.2003721001486 324.46279527559057 H 176.5031143209931 V328.968899175689" fill="none" class="treeEdge trait_MA==" id="node#273" stroke="blue"></path><path d="M 183.58118756186292 326.4771653543307 H 183.2003721001486 V324.46279527559057" fill="none" class="treeEdge trait_MA==" id="node#275" stroke="blue"></path><path d="M 183.94371809018932 327.8200787401575 H 183.58118756186292 V326.4771653543307" fill="none" class="treeEdge trait_MA==" id="node#276" stroke="blue"></path><path d="M 183.94371809018932 325.1342519685039 H 183.58118756186292 V326.4771653543307" fill="none" class="treeEdge trait_MA==" id="node#277" stroke="blue"></path><path d="M 183.94371809018932 322.4484251968504 H 183.2003721001486 V324.46279527559057" fill="none" class="treeEdge trait_MA==" id="node#274" stroke="blue"></path><path d="M 175.39756512399418 316.40531496062994 H 173.24805050657733 V322.6871070681595" fill="none" class="treeEdge trait_MA==" id="node#242" stroke="blue"></path><path d="M 182.31567625461682 318.4196850393701 H 175.39756512399418 V316.40531496062994" fill="none" class="treeEdge trait_MA==" id="node#244" stroke="blue"></path><path d="M 183.1173974737125 319.76259842519687 H 182.31567625461682 V318.4196850393701" fill="none" class="treeEdge trait_MA==" id="node#245" stroke="blue"></path><path d="M 183.94371809018935 319.76259842519687 H 183.1173974737125 V319.76259842519687" fill="none" class="treeEdge trait_MQ==" id="node#246" stroke="red"></path><path d="M 183.94371809018932 317.0767716535433 H 182.31567625461682 V318.4196850393701" fill="none" class="treeEdge trait_MA==" id="node#247" stroke="blue"></path><path d="M 183.94371809018935 314.39094488188977 H 175.39756512399418 V316.40531496062994" fill="none" class="treeEdge trait_MA==" id="node#243" stroke="blue"></path><path d="M 159.55728351254604 311.70511811023624 H 158.2493688679251 V317.19611258919787" fill="none" class="treeEdge trait_MA==" id="node#239" stroke="blue"></path><path d="M 160.78743618037865 311.70511811023624 H 159.55728351254604 V311.70511811023624" fill="none" class="treeEdge trait_Mw==" id="node#240" stroke="purple"></path><path d="M 137.63115427056795 309.0192913385827 H 137.49255468385707 V313.1077019638903" fill="none" class="treeEdge trait_MA==" id="node#278" stroke="blue"></path><path d="M 137.63115427056795 306.33346456692914 H 136.79582704108242 V309.7205832654097" fill="none" class="treeEdge trait_MA==" id="node#236" stroke="blue"></path><path d="M 137.63115427056795 303.64763779527556 H 136.26739271638615 V306.68411053034265" fill="none" class="treeEdge trait_MA==" id="node#234" stroke="blue"></path><path d="M 137.42712785394593 299.61889763779527 H 135.09643690613078 V303.15150408406896" fill="none" class="treeEdge trait_MA==" id="node#230" stroke="blue"></path><path d="M 137.63115427056795 300.96181102362203 H 137.42712785394593 V299.61889763779527" fill="none" class="treeEdge trait_MA==" id="node#231" stroke="blue"></path><path d="M 137.63115427056795 298.2759842519685 H 137.42712785394593 V299.61889763779527" fill="none" class="treeEdge trait_MA==" id="node#232" stroke="blue"></path><path d="M 137.63115427056795 295.590157480315 H 131.17321065367705 V299.37083078219194" fill="none" class="treeEdge trait_MA==" id="node#279" stroke="blue"></path><path d="M 137.63115427056795 292.9043307086614 H 129.20832355437864 V296.1375807454267" fill="none" class="treeEdge trait_MA==" id="node#280" stroke="blue"></path><path d="M 124.62992584516665 242.06214138241265 H 123.93984459871261 V269.09986106391966" fill="none" class="treeEdge trait_MA==" id="node#181" stroke="blue"></path><path d="M 130.37143133777286 242.06214138241265 H 124.62992584516665 V242.06214138241265" fill="none" class="treeEdge trait_Mw==" id="node#182" stroke="purple"></path><path d="M 133.9869130736416 247.62231426088826 H 130.37143133777286 V242.06214138241265" fill="none" class="treeEdge trait_Mw==" id="node#184" stroke="purple"></path><path d="M 135.08693162234133 253.70673482098917 H 133.9869130736416 V247.62231426088826" fill="none" class="treeEdge trait_Mw==" id="node#185" stroke="purple"></path><path d="M 136.60381917378706 257.48236727977365 H 135.08693162234133 V253.70673482098917" fill="none" class="treeEdge trait_Mw==" id="node#186" stroke="purple"></path><path d="M 138.3058995788791 262.34780542568905 H 136.60381917378706 V257.48236727977365" fill="none" class="treeEdge trait_Mw==" id="node#188" stroke="purple"></path><path d="M 153.79001660141157 268.04994156003943 H 138.3058995788791 V262.34780542568905" fill="none" class="treeEdge trait_Mw==" id="node#189" stroke="purple"></path><path d="M 156.18569383077624 273.41110359251974 H 153.79001660141157 V268.04994156003943" fill="none" class="treeEdge trait_Mw==" id="node#197" stroke="purple"></path><path d="M 160.72039673966555 276.7474040354331 H 156.18569383077624 V273.41110359251974" fill="none" class="treeEdge trait_Mw==" id="node#198" stroke="purple"></path><path d="M 163.5248535051792 279.39126476377953 H 160.72039673966555 V276.7474040354331" fill="none" class="treeEdge trait_Mw==" id="node#199" stroke="purple"></path><path d="M 164.87078184740537 281.9931594488189 H 163.5248535051792 V279.39126476377953" fill="none" class="treeEdge trait_Mw==" id="node#201" stroke="purple"></path><path d="M 182.27805953323156 284.5111220472441 H 164.87078184740537 V281.9931594488189" fill="none" class="treeEdge trait_Mw==" id="node#202" stroke="purple"></path><path d="M 182.30699245759274 286.86122047244095 H 182.27805953323156 V284.5111220472441" fill="none" class="treeEdge trait_Mw==" id="node#204" stroke="purple"></path><path d="M 206.33023356941104 288.87559055118106 H 182.30699245759274 V286.86122047244095" fill="none" class="treeEdge trait_Mw==" id="node#205" stroke="purple"></path><path d="M 207.1 290.2185039370079 H 206.33023356941104 V288.87559055118106" fill="none" class="treeEdge trait_Mw==" id="node#206" stroke="purple"></path><path d="M 207.1 287.5326771653543 H 206.33023356941104 V288.87559055118106" fill="none" class="treeEdge trait_Mw==" id="node#207" stroke="purple"></path><path d="M 183.94371809018932 284.8468503937008 H 182.30699245759274 V286.86122047244095" fill="none" class="treeEdge trait_Mw==" id="node#208" stroke="purple"></path><path d="M 183.94371809018932 282.16102362204725 H 182.27805953323156 V284.5111220472441" fill="none" class="treeEdge trait_Mw==" id="node#203" stroke="purple"></path><path d="M 183.9437180901893 279.4751968503937 H 164.87078184740537 V281.9931594488189" fill="none" class="treeEdge trait_Mw==" id="node#209" stroke="purple"></path><path d="M 183.9437180901893 276.78937007874015 H 163.5248535051792 V279.39126476377953" fill="none" class="treeEdge trait_Mw==" id="node#200" stroke="purple"></path><path d="M 160.7874361803786 274.1035433070866 H 160.72039673966555 V276.7474040354331" fill="none" class="treeEdge trait_Mw==" id="node#210" stroke="purple"></path><path d="M 157.25275672021155 270.07480314960634 H 156.18569383077624 V273.41110359251974" fill="none" class="treeEdge trait_Mw==" id="node#211" stroke="purple"></path><path d="M 158.60961986294097 270.07480314960634 H 157.25275672021155 V270.07480314960634" fill="none" class="treeEdge trait_MA==" id="node#212" stroke="blue"></path><path d="M 160.78743618037865 271.4177165354331 H 158.60961986294097 V270.07480314960634" fill="none" class="treeEdge trait_MA==" id="node#213" stroke="blue"></path><path d="M 160.78743618037865 268.7318897637796 H 158.60961986294097 V270.07480314960634" fill="none" class="treeEdge trait_MA==" id="node#214" stroke="blue"></path><path d="M 154.9248236003424 262.6887795275591 H 153.79001660141157 V268.04994156003943" fill="none" class="treeEdge trait_Mw==" id="node#190" stroke="purple"></path><path d="M 157.7316871081124 264.70314960629923 H 154.9248236003424 V262.6887795275591" fill="none" class="treeEdge trait_Mw==" id="node#191" stroke="purple"></path><path d="M 160.57086684499117 266.046062992126 H 157.7316871081124 V264.70314960629923" fill="none" class="treeEdge trait_Mw==" id="node#192" stroke="purple"></path><path d="M 160.78743618037865 266.046062992126 H 160.57086684499117 V266.046062992126" fill="none" class="treeEdge trait_MA==" id="node#193" stroke="blue"></path><path d="M 177.80931508913932 263.3602362204725 H 157.7316871081124 V264.70314960629923" fill="none" class="treeEdge trait_Mw==" id="node#194" stroke="purple"></path><path d="M 183.94371809018932 263.3602362204725 H 177.80931508913932 V263.3602362204725" fill="none" class="treeEdge trait_Mg==" id="node#195" stroke="green"></path><path d="M 160.78743618037865 260.67440944881895 H 154.9248236003424 V262.6887795275591" fill="none" class="treeEdge trait_Mw==" id="node#196" stroke="purple"></path><path d="M 158.9312367892953 256.6456692913386 H 138.3058995788791 V262.34780542568905" fill="none" class="treeEdge trait_Mw==" id="node#215" stroke="purple"></path><path d="M 160.78743618037865 257.98858267716537 H 158.9312367892953 V256.6456692913386" fill="none" class="treeEdge trait_Mw==" id="node#216" stroke="purple"></path><path d="M 160.78743618037865 255.30275590551182 H 158.9312367892953 V256.6456692913386" fill="none" class="treeEdge trait_Mw==" id="node#217" stroke="purple"></path><path d="M 137.63115427056795 252.61692913385826 H 136.60381917378706 V257.48236727977365" fill="none" class="treeEdge trait_Mw==" id="node#187" stroke="purple"></path><path d="M 138.92089727880048 249.93110236220474 H 135.08693162234133 V253.70673482098917" fill="none" class="treeEdge trait_Mw==" id="node#218" stroke="purple"></path><path d="M 160.78743618037865 249.93110236220474 H 138.92089727880048 V249.93110236220474" fill="none" class="treeEdge trait_Mg==" id="node#219" stroke="green"></path><path d="M 136.42300047526794 241.53789370078738 H 133.9869130736416 V247.62231426088826" fill="none" class="treeEdge trait_Mw==" id="node#220" stroke="purple"></path><path d="M 159.80279335828882 243.88799212598423 H 136.42300047526794 V241.53789370078738" fill="none" class="treeEdge trait_Mw==" id="node#222" stroke="purple"></path><path d="M 160.4045598135499 245.9023622047244 H 159.80279335828882 V243.88799212598423" fill="none" class="treeEdge trait_Mw==" id="node#224" stroke="purple"></path><path d="M 160.78743618037865 247.24527559055116 H 160.4045598135499 V245.9023622047244" fill="none" class="treeEdge trait_Mw==" id="node#225" stroke="purple"></path><path d="M 160.78743618037865 244.5594488188976 H 160.4045598135499 V245.9023622047244" fill="none" class="treeEdge trait_Mw==" id="node#226" stroke="purple"></path><path d="M 160.78743618037865 241.87362204724408 H 159.80279335828882 V243.88799212598423" fill="none" class="treeEdge trait_Mw==" id="node#223" stroke="purple"></path><path d="M 137.63115427056792 239.18779527559053 H 136.42300047526794 V241.53789370078738" fill="none" class="treeEdge trait_Mw==" id="node#221" stroke="purple"></path><path d="M 137.63115427056792 236.501968503937 H 130.37143133777286 V242.06214138241265" fill="none" class="treeEdge trait_Mw==" id="node#183" stroke="purple"></path><path d="M 129.69438283474153 228.1087598425197 H 119.99503801071762 V248.60431045321965" fill="none" class="treeEdge trait_MA==" id="node#281" stroke="blue"></path><path d="M 130.92174000082747 230.45885826771655 H 129.69438283474153 V228.1087598425197" fill="none" class="treeEdge trait_MA==" id="node#282" stroke="blue"></path><path d="M 133.72522110321012 230.45885826771655 H 130.92174000082747 V230.45885826771655" fill="none" class="treeEdge trait_Mw==" id="node#283" stroke="purple"></path><path d="M 134.36171967637893 232.4732283464567 H 133.72522110321012 V230.45885826771655" fill="none" class="treeEdge trait_Mw==" id="node#284" stroke="purple"></path><path d="M 137.63115427056795 233.81614173228346 H 134.36171967637893 V232.4732283464567" fill="none" class="treeEdge trait_Mw==" id="node#285" stroke="purple"></path><path d="M 137.63115427056795 231.13031496062993 H 134.36171967637893 V232.4732283464567" fill="none" class="treeEdge trait_Mw==" id="node#286" stroke="purple"></path><path d="M 137.63115427056795 228.44448818897638 H 133.72522110321012 V230.45885826771655" fill="none" class="treeEdge trait_Mw==" id="node#287" stroke="purple"></path><path d="M 136.75430877974495 225.75866141732286 H 129.69438283474153 V228.1087598425197" fill="none" class="treeEdge trait_MA==" id="node#288" stroke="blue"></path><path d="M 137.63115427056792 225.75866141732286 H 136.75430877974495 V225.75866141732286" fill="none" class="treeEdge trait_Mw==" id="node#289" stroke="purple"></path><path d="M 92.16739921544837 177.40328801673226 H 91.98864370008783 V213.003799234976" fill="none" class="treeEdge trait_Mw==" id="node#118" stroke="purple"></path><path d="M 96.19105388972362 191.00028604822833 H 92.16739921544837 V177.40328801673226" fill="none" class="treeEdge trait_Mw==" id="node#143" stroke="purple"></path><path d="M 96.88260311923803 193.84348548228346 H 96.19105388972362 V191.00028604822833" fill="none" class="treeEdge trait_Mw==" id="node#146" stroke="purple"></path><path d="M 104.10663696304064 193.84348548228346 H 96.88260311923803 V193.84348548228346" fill="none" class="treeEdge trait_MA==" id="node#147" stroke="blue"></path><path d="M 126.78794330721277 193.84348548228346 H 104.10663696304064 V193.84348548228346" fill="none" class="treeEdge trait_MQ==" id="node#148" stroke="red"></path><path d="M 132.6337241666169 196.84405757874015 H 126.78794330721277 V193.84348548228346" fill="none" class="treeEdge trait_MQ==" id="node#151" stroke="red"></path><path d="M 155.78259508804146 200.159375 H 132.6337241666169 V196.84405757874015" fill="none" class="treeEdge trait_MQ==" id="node#153" stroke="red"></path><path d="M 156.90809510193927 200.159375 H 155.78259508804146 V200.159375" fill="none" class="treeEdge trait_MA==" id="node#154" stroke="blue"></path><path d="M 159.5276572761864 204.10418307086616 H 156.90809510193927 V200.159375" fill="none" class="treeEdge trait_MA==" id="node#155" stroke="blue"></path><path d="M 168.8317044974348 204.10418307086616 H 159.5276572761864 V204.10418307086616" fill="none" class="treeEdge trait_MQ==" id="node#156" stroke="red"></path><path d="M 170.9775557564844 209.3079724409449 H 168.8317044974348 V204.10418307086616" fill="none" class="treeEdge trait_MQ==" id="node#157" stroke="red"></path><path d="M 177.49290686106193 215.01535433070865 H 170.9775557564844 V209.3079724409449" fill="none" class="treeEdge trait_MQ==" id="node#163" stroke="red"></path><path d="M 179.7846303249927 215.01535433070865 H 177.49290686106193 V215.01535433070865" fill="none" class="treeEdge trait_MA==" id="node#164" stroke="blue"></path><path d="M 180.73000726117655 215.01535433070865 H 179.7846303249927 V215.01535433070865" fill="none" class="treeEdge trait_Mw==" id="node#165" stroke="purple"></path><path d="M 186.28858315859983 219.04409448818896 H 180.73000726117655 V215.01535433070865" fill="none" class="treeEdge trait_Mw==" id="node#169" stroke="purple"></path><path d="M 196.0258481663665 221.72992125984254 H 186.28858315859983 V219.04409448818896" fill="none" class="treeEdge trait_Mw==" id="node#170" stroke="purple"></path><path d="M 207.1 223.0728346456693 H 196.0258481663665 V221.72992125984254" fill="none" class="treeEdge trait_Mw==" id="node#171" stroke="purple"></path><path d="M 207.1 220.38700787401578 H 196.0258481663665 V221.72992125984254" fill="none" class="treeEdge trait_Mw==" id="node#172" stroke="purple"></path><path d="M 206.3390504725047 216.35826771653544 H 186.28858315859983 V219.04409448818896" fill="none" class="treeEdge trait_Mw==" id="node#173" stroke="purple"></path><path d="M 207.1 217.70118110236223 H 206.3390504725047 V216.35826771653544" fill="none" class="treeEdge trait_Mw==" id="node#174" stroke="purple"></path><path d="M 207.1 215.01535433070865 H 206.3390504725047 V216.35826771653544" fill="none" class="treeEdge trait_Mw==" id="node#175" stroke="purple"></path><path d="M 182.18722432025282 210.98661417322836 H 180.73000726117655 V215.01535433070865" fill="none" class="treeEdge trait_Mw==" id="node#166" stroke="purple"></path><path d="M 183.94371809018932 212.32952755905512 H 182.18722432025282 V210.98661417322836" fill="none" class="treeEdge trait_Mw==" id="node#167" stroke="purple"></path><path d="M 183.94371809018932 209.64370078740157 H 182.18722432025282 V210.98661417322836" fill="none" class="treeEdge trait_Mw==" id="node#168" stroke="purple"></path><path d="M 181.53868203440703 203.6005905511811 H 170.9775557564844 V209.3079724409449" fill="none" class="treeEdge trait_MQ==" id="node#158" stroke="red"></path><path d="M 186.48801082542164 205.61496062992126 H 181.53868203440703 V203.6005905511811" fill="none" class="treeEdge trait_MQ==" id="node#159" stroke="red"></path><path d="M 207.1 206.95787401574805 H 186.48801082542164 V205.61496062992126" fill="none" class="treeEdge trait_MQ==" id="node#160" stroke="red"></path><path d="M 207.1 204.27204724409447 H 186.48801082542164 V205.61496062992126" fill="none" class="treeEdge trait_MQ==" id="node#161" stroke="red"></path><path d="M 183.94371809018932 201.5862204724409 H 181.53868203440703 V203.6005905511811" fill="none" class="treeEdge trait_MQ==" id="node#162" stroke="red"></path><path d="M 183.94371809018932 198.9003937007874 H 168.8317044974348 V204.10418307086616" fill="none" class="treeEdge trait_MQ==" id="node#176" stroke="red"></path><path d="M 160.78743618037865 196.21456692913384 H 156.90809510193927 V200.159375" fill="none" class="treeEdge trait_MA==" id="node#177" stroke="blue"></path><path d="M 137.63115427056795 193.5287401574803 H 132.6337241666169 V196.84405757874015" fill="none" class="treeEdge trait_MQ==" id="node#152" stroke="red"></path><path d="M 134.98949359410406 190.84291338582676 H 126.78794330721277 V193.84348548228346" fill="none" class="treeEdge trait_MQ==" id="node#149" stroke="red"></path><path d="M 137.63115427056795 190.84291338582676 H 134.98949359410406 V190.84291338582676" fill="none" class="treeEdge trait_Mg==" id="node#150" stroke="green"></path><path d="M 134.72141307124457 188.15708661417324 H 96.19105388972362 V191.00028604822833" fill="none" class="treeEdge trait_Mw==" id="node#144" stroke="purple"></path><path d="M 137.63115427056795 188.15708661417324 H 134.72141307124457 V188.15708661417324" fill="none" class="treeEdge trait_MA==" id="node#145" stroke="blue"></path><path d="M 116.6468452031355 163.8062899852362 H 92.16739921544837 V177.40328801673226" fill="none" class="treeEdge trait_Mw==" id="node#119" stroke="purple"></path><path d="M 127.0037096921665 163.8062899852362 H 116.6468452031355 V163.8062899852362" fill="none" class="treeEdge trait_Mg==" id="node#120" stroke="green"></path><path d="M 135.32315585282478 169.33531619094484 H 127.0037096921665 V163.8062899852362" fill="none" class="treeEdge trait_Mg==" id="node#128" stroke="green"></path><path d="M 154.5978852283446 172.00015994094485 H 135.32315585282478 V169.33531619094484" fill="none" class="treeEdge trait_Mg==" id="node#130" stroke="green"></path><path d="M 158.21696225434394 174.6440206692913 H 154.5978852283446 V172.00015994094485" fill="none" class="treeEdge trait_Mg==" id="node#132" stroke="green"></path><path d="M 159.247618735475 177.2459153543307 H 158.21696225434394 V174.6440206692913" fill="none" class="treeEdge trait_Mg==" id="node#133" stroke="green"></path><path d="M 160.16883243682665 179.76387795275593 H 159.247618735475 V177.2459153543307" fill="none" class="treeEdge trait_Mg==" id="node#135" stroke="green"></path><path d="M 181.68338774978733 182.11397637795278 H 160.16883243682665 V179.76387795275593" fill="none" class="treeEdge trait_Mg==" id="node#136" stroke="green"></path><path d="M 182.52822283909396 184.12834645669292 H 181.68338774978733 V182.11397637795278" fill="none" class="treeEdge trait_Mg==" id="node#138" stroke="green"></path><path d="M 183.94371809018935 185.4712598425197 H 182.52822283909396 V184.12834645669292" fill="none" class="treeEdge trait_Mg==" id="node#139" stroke="green"></path><path d="M 183.94371809018935 182.78543307086616 H 182.52822283909396 V184.12834645669292" fill="none" class="treeEdge trait_Mg==" id="node#140" stroke="green"></path><path d="M 183.94371809018935 180.0996062992126 H 181.68338774978733 V182.11397637795278" fill="none" class="treeEdge trait_Mg==" id="node#137" stroke="green"></path><path d="M 160.78743618037865 177.41377952755903 H 160.16883243682665 V179.76387795275593" fill="none" class="treeEdge trait_Mg==" id="node#141" stroke="green"></path><path d="M 160.78743618037865 174.7279527559055 H 159.247618735475 V177.2459153543307" fill="none" class="treeEdge trait_Mg==" id="node#134" stroke="green"></path><path d="M 160.78743618037865 172.04212598425195 H 158.21696225434394 V174.6440206692913" fill="none" class="treeEdge trait_Mg==" id="node#142" stroke="green"></path><path d="M 160.78743618037865 169.35629921259843 H 154.5978852283446 V172.00015994094485" fill="none" class="treeEdge trait_Mg==" id="node#131" stroke="green"></path><path d="M 137.63115427056795 166.67047244094488 H 135.32315585282478 V169.33531619094484" fill="none" class="treeEdge trait_Mg==" id="node#129" stroke="green"></path><path d="M 128.09724002950657 158.27726377952754 H 127.0037096921665 V163.8062899852362" fill="none" class="treeEdge trait_Mg==" id="node#121" stroke="green"></path><path d="M 134.9323305056285 160.62736220472442 H 128.09724002950657 V158.27726377952754" fill="none" class="treeEdge trait_Mg==" id="node#122" stroke="green"></path><path d="M 136.47371163233518 162.64173228346456 H 134.9323305056285 V160.62736220472442" fill="none" class="treeEdge trait_Mg==" id="node#123" stroke="green"></path><path d="M 137.63115427056792 163.98464566929135 H 136.47371163233518 V162.64173228346456" fill="none" class="treeEdge trait_Mg==" id="node#124" stroke="green"></path><path d="M 137.63115427056792 161.2988188976378 H 136.47371163233518 V162.64173228346456" fill="none" class="treeEdge trait_Mg==" id="node#125" stroke="green"></path><path d="M 137.63115427056792 158.61299212598428 H 134.9323305056285 V160.62736220472442" fill="none" class="treeEdge trait_Mg==" id="node#126" stroke="green"></path><path d="M 137.63115427056795 155.9271653543307 H 128.09724002950657 V158.27726377952754" fill="none" class="treeEdge trait_Mg==" id="node#127" stroke="green"></path><path d="M 50.546257877571996 153.24133858267714 H 44.621552180470324 V183.12256890882657" fill="none" class="treeEdge trait_MQ==" id="node#290" stroke="red"></path><path d="M 98.47012834591453 153.24133858267714 H 50.546257877571996 V153.24133858267714" fill="none" class="treeEdge trait_MA==" id="node#291" stroke="blue"></path><path d="M 123.68596143336028 153.24133858267714 H 98.47012834591453 V153.24133858267714" fill="none" class="treeEdge trait_MQ==" id="node#292" stroke="red"></path><path d="M 124.20396886570728 153.24133858267714 H 123.68596143336028 V153.24133858267714" fill="none" class="treeEdge trait_Mg==" id="node#293" stroke="green"></path><path d="M 137.63115427056795 153.24133858267714 H 124.20396886570728 V153.24133858267714" fill="none" class="treeEdge trait_Mw==" id="node#294" stroke="purple"></path><path d="M 18.982779559954253 34.72099480816697 H 10.9 V108.92178185849677" fill="none" class="treeEdge trait_MQ==" id="node#1" stroke="red"></path><path d="M 95.69067179480759 34.72099480816697 H 18.982779559954253 V34.72099480816697" fill="none" class="treeEdge trait_Mg==" id="node#2" stroke="green"></path><path d="M 109.10922821864598 50.49198961633394 H 95.69067179480759 V34.72099480816697" fill="none" class="treeEdge trait_Mg==" id="node#4" stroke="green"></path><path d="M 117.22869343268094 50.49198961633394 H 109.10922821864598 V50.49198961633394" fill="none" class="treeEdge trait_MQ==" id="node#5" stroke="red"></path><path d="M 124.94815022999751 74.48533719280573 H 117.22869343268094 V50.49198961633394" fill="none" class="treeEdge trait_MQ==" id="node#6" stroke="red"></path><path d="M 130.23089343362892 83.01870588167445 H 124.94815022999751 V74.48533719280573" fill="none" class="treeEdge trait_MQ==" id="node#7" stroke="red"></path><path d="M 131.5959509510332 92.69941963736466 H 130.23089343362892 V83.01870588167445" fill="none" class="treeEdge trait_MQ==" id="node#8" stroke="red"></path><path d="M 131.79264129068113 99.63889832984746 H 131.5959509510332 V92.69941963736466" fill="none" class="treeEdge trait_MQ==" id="node#16" stroke="red"></path><path d="M 138.73082398840967 105.1246470533957 H 131.79264129068113 V99.63889832984746" fill="none" class="treeEdge trait_MQ==" id="node#18" stroke="red"></path><path d="M 154.10529662639058 112.06740434301182 H 138.73082398840967 V105.1246470533957" fill="none" class="treeEdge trait_MQ==" id="node#24" stroke="red"></path><path d="M 155.95221482901155 112.06740434301182 H 154.10529662639058 V112.06740434301182" fill="none" class="treeEdge trait_Mg==" id="node#25" stroke="green"></path><path d="M 156.5407184981964 120.581265378937 H 155.95221482901155 V112.06740434301182" fill="none" class="treeEdge trait_Mg==" id="node#26" stroke="green"></path><path d="M 158.5449747686612 127.53713705708662 H 156.5407184981964 V120.581265378937" fill="none" class="treeEdge trait_Mg==" id="node#27" stroke="green"></path><path d="M 182.40037628296616 131.37703001968504 H 158.5449747686612 V127.53713705708662" fill="none" class="treeEdge trait_Mg==" id="node#28" stroke="green"></path><path d="M 193.96427155028567 136.37098917322834 H 182.40037628296616 V131.37703001968504" fill="none" class="treeEdge trait_Mg==" id="node#29" stroke="green"></path><path d="M 196.54612889634504 141.65871062992127 H 193.96427155028567 V136.37098917322834" fill="none" class="treeEdge trait_Mg==" id="node#36" stroke="green"></path><path d="M 203.28773733578 144.84812992125984 H 196.54612889634504 V141.65871062992127" fill="none" class="treeEdge trait_Mg==" id="node#37" stroke="green"></path><path d="M 205.55962206526215 147.1982283464567 H 203.28773733578 V144.84812992125984" fill="none" class="treeEdge trait_Mg==" id="node#38" stroke="green"></path><path d="M 205.74508103700973 149.21259842519683 H 205.55962206526215 V147.1982283464567" fill="none" class="treeEdge trait_Mg==" id="node#40" stroke="green"></path><path d="M 207.1 150.55551181102362 H 205.74508103700973 V149.21259842519683" fill="none" class="treeEdge trait_Mg==" id="node#41" stroke="green"></path><path d="M 207.1 147.86968503937007 H 205.74508103700973 V149.21259842519683" fill="none" class="treeEdge trait_Mg==" id="node#42" stroke="green"></path><path d="M 207.1 145.18385826771654 H 205.55962206526215 V147.1982283464567" fill="none" class="treeEdge trait_Mg==" id="node#39" stroke="green"></path><path d="M 207.1 142.498031496063 H 203.28773733578 V144.84812992125984" fill="none" class="treeEdge trait_Mg==" id="node#43" stroke="green"></path><path d="M 196.7337463730258 138.4692913385827 H 196.54612889634504 V141.65871062992127" fill="none" class="treeEdge trait_Mg==" id="node#44" stroke="green"></path><path d="M 203.9687562078797 138.4692913385827 H 196.7337463730258 V138.4692913385827" fill="none" class="treeEdge trait_MQ==" id="node#45" stroke="red"></path><path d="M 207.09999999999994 139.81220472440947 H 203.9687562078797 V138.4692913385827" fill="none" class="treeEdge trait_MQ==" id="node#46" stroke="red"></path><path d="M 207.09999999999994 137.12637795275592 H 203.9687562078797 V138.4692913385827" fill="none" class="treeEdge trait_MQ==" id="node#47" stroke="red"></path><path d="M 194.4572860726799 131.08326771653543 H 193.96427155028567 V136.37098917322834" fill="none" class="treeEdge trait_Mg==" id="node#30" stroke="green"></path><path d="M 199.70077746560415 133.09763779527557 H 194.4572860726799 V131.08326771653543" fill="none" class="treeEdge trait_Mg==" id="node#32" stroke="green"></path><path d="M 206.03179741313733 133.09763779527557 H 199.70077746560415 V133.09763779527557" fill="none" class="treeEdge trait_Mw==" id="node#33" stroke="purple"></path><path d="M 207.09999999999994 134.44055118110234 H 206.03179741313733 V133.09763779527557" fill="none" class="treeEdge trait_Mw==" id="node#34" stroke="purple"></path><path d="M 207.09999999999994 131.7547244094488 H 206.03179741313733 V133.09763779527557" fill="none" class="treeEdge trait_Mw==" id="node#35" stroke="purple"></path><path d="M 207.0999999999999 129.06889763779526 H 194.4572860726799 V131.08326771653543" fill="none" class="treeEdge trait_Mg==" id="node#31" stroke="green"></path><path d="M 183.94371809018926 126.38307086614174 H 182.40037628296616 V131.37703001968504" fill="none" class="treeEdge trait_Mg==" id="node#48" stroke="green"></path><path d="M 160.7874361803786 123.6972440944882 H 158.5449747686612 V127.53713705708662" fill="none" class="treeEdge trait_Mg==" id="node#49" stroke="green"></path><path d="M 161.6178996329993 113.6253937007874 H 156.5407184981964 V120.581265378937" fill="none" class="treeEdge trait_Mg==" id="node#50" stroke="green"></path><path d="M 163.3506663649156 117.65413385826774 H 161.6178996329993 V113.6253937007874" fill="none" class="treeEdge trait_Mg==" id="node#51" stroke="green"></path><path d="M 199.3034432962611 119.6685039370079 H 163.3506663649156 V117.65413385826774" fill="none" class="treeEdge trait_Mg==" id="node#53" stroke="green"></path><path d="M 206.39645637445508 121.01141732283466 H 199.3034432962611 V119.6685039370079" fill="none" class="treeEdge trait_Mg==" id="node#54" stroke="green"></path><path d="M 207.09999999999994 121.01141732283466 H 206.39645637445508 V121.01141732283466" fill="none" class="treeEdge trait_MQ==" id="node#55" stroke="red"></path><path d="M 207.09999999999994 118.32559055118112 H 199.3034432962611 V119.6685039370079" fill="none" class="treeEdge trait_Mg==" id="node#56" stroke="green"></path><path d="M 183.94371809018926 115.63976377952758 H 163.3506663649156 V117.65413385826774" fill="none" class="treeEdge trait_Mg==" id="node#52" stroke="green"></path><path d="M 175.62214549037307 109.59665354330708 H 161.6178996329993 V113.6253937007874" fill="none" class="treeEdge trait_Mg==" id="node#57" stroke="green"></path><path d="M 179.25446606498718 111.61102362204724 H 175.62214549037307 V109.59665354330708" fill="none" class="treeEdge trait_Mg==" id="node#59" stroke="green"></path><path d="M 180.35570424500528 112.953937007874 H 179.25446606498718 V111.61102362204724" fill="none" class="treeEdge trait_Mg==" id="node#61" stroke="green"></path><path d="M 183.94371809018926 112.953937007874 H 180.35570424500528 V112.953937007874" fill="none" class="treeEdge trait_MQ==" id="node#62" stroke="red"></path><path d="M 183.94371809018926 110.26811023622047 H 179.25446606498718 V111.61102362204724" fill="none" class="treeEdge trait_Mg==" id="node#60" stroke="green"></path><path d="M 183.94371809018926 107.58228346456693 H 175.62214549037307 V109.59665354330708" fill="none" class="treeEdge trait_Mg==" id="node#58" stroke="green"></path><path d="M 160.3117991893292 103.55354330708663 H 155.95221482901155 V112.06740434301182" fill="none" class="treeEdge trait_Mg==" id="node#63" stroke="green"></path><path d="M 160.7874361803786 104.89645669291339 H 160.3117991893292 V103.55354330708663" fill="none" class="treeEdge trait_Mg==" id="node#64" stroke="green"></path><path d="M 160.7874361803786 102.21062992125985 H 160.3117991893292 V103.55354330708663" fill="none" class="treeEdge trait_Mg==" id="node#65" stroke="green"></path><path d="M 144.99398063078974 98.18188976377955 H 138.73082398840967 V105.1246470533957" fill="none" class="treeEdge trait_MQ==" id="node#19" stroke="red"></path><path d="M 161.23335810775274 98.18188976377955 H 144.99398063078974 V98.18188976377955" fill="none" class="treeEdge trait_Mg==" id="node#20" stroke="green"></path><path d="M 175.34903061100908 98.18188976377955 H 161.23335810775274 V98.18188976377955" fill="none" class="treeEdge trait_Mw==" id="node#21" stroke="purple"></path><path d="M 183.94371809018932 99.52480314960631 H 175.34903061100908 V98.18188976377955" fill="none" class="treeEdge trait_Mw==" id="node#22" stroke="purple"></path><path d="M 183.94371809018932 96.83897637795278 H 175.34903061100908 V98.18188976377955" fill="none" class="treeEdge trait_Mw==" id="node#23" stroke="purple"></path><path d="M 137.63115427056795 94.15314960629924 H 131.79264129068113 V99.63889832984746" fill="none" class="treeEdge trait_MQ==" id="node#17" stroke="red"></path><path d="M 147.19909842843538 85.75994094488189 H 131.5959509510332 V92.69941963736466" fill="none" class="treeEdge trait_MQ==" id="node#9" stroke="red"></path><path d="M 172.3868025051134 88.11003937007874 H 147.19909842843538 V85.75994094488189" fill="none" class="treeEdge trait_MQ==" id="node#10" stroke="red"></path><path d="M 176.32314465306905 90.1244094488189 H 172.3868025051134 V88.11003937007874" fill="none" class="treeEdge trait_MQ==" id="node#11" stroke="red"></path><path d="M 183.94371809018932 91.46732283464566 H 176.32314465306905 V90.1244094488189" fill="none" class="treeEdge trait_MQ==" id="node#12" stroke="red"></path><path d="M 183.94371809018932 88.78149606299212 H 176.32314465306905 V90.1244094488189" fill="none" class="treeEdge trait_MQ==" id="node#13" stroke="red"></path><path d="M 207.1 86.09566929133858 H 172.3868025051134 V88.11003937007874" fill="none" class="treeEdge trait_MQ==" id="node#14" stroke="red"></path><path d="M 160.78743618037865 83.40984251968504 H 147.19909842843538 V85.75994094488189" fill="none" class="treeEdge trait_MQ==" id="node#15" stroke="red"></path><path d="M 134.5719692179311 73.33799212598423 H 130.23089343362892 V83.01870588167445" fill="none" class="treeEdge trait_MQ==" id="node#66" stroke="red"></path><path d="M 134.59862181380464 76.69527559055119 H 134.5719692179311 V73.33799212598423" fill="none" class="treeEdge trait_MQ==" id="node#68" stroke="red"></path><path d="M 158.1694298718537 79.38110236220473 H 134.59862181380464 V76.69527559055119" fill="none" class="treeEdge trait_MQ==" id="node#69" stroke="red"></path><path d="M 160.78743618037865 80.7240157480315 H 158.1694298718537 V79.38110236220473" fill="none" class="treeEdge trait_MQ==" id="node#70" stroke="red"></path><path d="M 160.78743618037865 78.03818897637797 H 158.1694298718537 V79.38110236220473" fill="none" class="treeEdge trait_MQ==" id="node#71" stroke="red"></path><path d="M 134.9646751660647 74.00944881889765 H 134.59862181380464 V76.69527559055119" fill="none" class="treeEdge trait_MQ==" id="node#72" stroke="red"></path><path d="M 137.63115427056795 75.35236220472443 H 134.9646751660647 V74.00944881889765" fill="none" class="treeEdge trait_MQ==" id="node#73" stroke="red"></path><path d="M 137.63115427056795 72.66653543307089 H 134.9646751660647 V74.00944881889765" fill="none" class="treeEdge trait_MQ==" id="node#74" stroke="red"></path><path d="M 137.63115427056795 69.98070866141731 H 134.5719692179311 V73.33799212598423" fill="none" class="treeEdge trait_MQ==" id="node#67" stroke="red"></path><path d="M 135.82730587238342 65.951968503937 H 124.94815022999751 V74.48533719280573" fill="none" class="treeEdge trait_MQ==" id="node#75" stroke="red"></path><path d="M 137.63115427056795 67.29488188976377 H 135.82730587238342 V65.951968503937" fill="none" class="treeEdge trait_MQ==" id="node#76" stroke="red"></path><path d="M 137.63115427056795 64.60905511811023 H 135.82730587238342 V65.951968503937" fill="none" class="treeEdge trait_MQ==" id="node#77" stroke="red"></path><path d="M 127.49462488132032 26.49864203986219 H 117.22869343268094 V50.49198961633394" fill="none" class="treeEdge trait_MQ==" id="node#78" stroke="red"></path><path d="M 131.66283831486228 31.361457308070847 H 127.49462488132032 V26.49864203986219" fill="none" class="treeEdge trait_MQ==" id="node#80" stroke="red"></path><path d="M 137.3997843417589 38.401261072834615 H 131.66283831486228 V31.361457308070847" fill="none" class="treeEdge trait_MQ==" id="node#81" stroke="red"></path><path d="M 146.5704333108105 46.77348671259843 H 137.3997843417589 V38.401261072834615" fill="none" class="treeEdge trait_MQ==" id="node#96" stroke="red"></path><path d="M 156.43873618671446 50.424532480314966 H 146.5704333108105 V46.77348671259843" fill="none" class="treeEdge trait_MQ==" id="node#98" stroke="red"></path><path d="M 177.7312303713175 53.69788385826773 H 156.43873618671446 V50.424532480314966" fill="none" class="treeEdge trait_MQ==" id="node#102" stroke="red"></path><path d="M 177.91202555837137 56.21584645669293 H 177.7312303713175 V53.69788385826773" fill="none" class="treeEdge trait_MQ==" id="node#104" stroke="red"></path><path d="M 190.48329046805586 58.56594488188978 H 177.91202555837137 V56.21584645669293" fill="none" class="treeEdge trait_MQ==" id="node#106" stroke="red"></path><path d="M 203.0432775206577 60.58031496062992 H 190.48329046805586 V58.56594488188978" fill="none" class="treeEdge trait_MQ==" id="node#107" stroke="red"></path><path d="M 207.02524969416004 60.58031496062992 H 203.0432775206577 V60.58031496062992" fill="none" class="treeEdge trait_Mg==" id="node#108" stroke="green"></path><path d="M 207.1 61.923228346456696 H 207.02524969416004 V60.58031496062992" fill="none" class="treeEdge trait_Mg==" id="node#109" stroke="green"></path><path d="M 207.1 59.23740157480316 H 207.02524969416004 V60.58031496062992" fill="none" class="treeEdge trait_Mg==" id="node#110" stroke="green"></path><path d="M 207.1 56.55157480314962 H 190.48329046805586 V58.56594488188978" fill="none" class="treeEdge trait_MQ==" id="node#111" stroke="red"></path><path d="M 183.94371809018932 53.86574803149608 H 177.91202555837137 V56.21584645669293" fill="none" class="treeEdge trait_MQ==" id="node#105" stroke="red"></path><path d="M 183.94371809018932 51.179921259842544 H 177.7312303713175 V53.69788385826773" fill="none" class="treeEdge trait_MQ==" id="node#103" stroke="red"></path><path d="M 159.49949170267868 47.151181102362195 H 156.43873618671446 V50.424532480314966" fill="none" class="treeEdge trait_MQ==" id="node#99" stroke="red"></path><path d="M 160.7874361803786 48.49409448818896 H 159.49949170267868 V47.151181102362195" fill="none" class="treeEdge trait_MQ==" id="node#100" stroke="red"></path><path d="M 160.7874361803786 45.808267716535426 H 159.49949170267868 V47.151181102362195" fill="none" class="treeEdge trait_MQ==" id="node#101" stroke="red"></path><path d="M 160.78743618037865 43.12244094488189 H 146.5704333108105 V46.77348671259843" fill="none" class="treeEdge trait_MQ==" id="node#97" stroke="red"></path><path d="M 140.0869546050851 30.029035433070845 H 137.3997843417589 V38.401261072834615" fill="none" class="treeEdge trait_MQ==" id="node#82" stroke="red"></path><path d="M 147.61499145107993 30.029035433070845 H 140.0869546050851 V30.029035433070845" fill="none" class="treeEdge trait_MA==" id="node#83" stroke="blue"></path><path d="M 154.30602771487656 33.050590551181116 H 147.61499145107993 V30.029035433070845" fill="none" class="treeEdge trait_MA==" id="node#84" stroke="blue"></path><path d="M 158.06822966472498 36.407874015748035 H 154.30602771487656 V33.050590551181116" fill="none" class="treeEdge trait_MA==" id="node#87" stroke="blue"></path><path d="M 160.13421114597537 39.09370078740157 H 158.06822966472498 V36.407874015748035" fill="none" class="treeEdge trait_MA==" id="node#88" stroke="blue"></path><path d="M 160.7874361803786 40.43661417322835 H 160.13421114597537 V39.09370078740157" fill="none" class="treeEdge trait_MA==" id="node#89" stroke="blue"></path><path d="M 160.7874361803786 37.75078740157481 H 160.13421114597537 V39.09370078740157" fill="none" class="treeEdge trait_MA==" id="node#90" stroke="blue"></path><path d="M 158.82650535068638 33.7220472440945 H 158.06822966472498 V36.407874015748035" fill="none" class="treeEdge trait_MA==" id="node#91" stroke="blue"></path><path d="M 160.78743618037865 35.06496062992127 H 158.82650535068638 V33.7220472440945" fill="none" class="treeEdge trait_MA==" id="node#92" stroke="blue"></path><path d="M 160.78743618037865 32.37913385826773 H 158.82650535068638 V33.7220472440945" fill="none" class="treeEdge trait_MA==" id="node#93" stroke="blue"></path><path d="M 159.08106321960173 29.69330708661419 H 154.30602771487656 V33.050590551181116" fill="none" class="treeEdge trait_MA==" id="node#85" stroke="blue"></path><path d="M 160.78743618037865 29.69330708661419 H 159.08106321960173 V29.69330708661419" fill="none" class="treeEdge trait_MQ==" id="node#86" stroke="red"></path><path d="M 149.41436463852452 27.007480314960617 H 147.61499145107993 V30.029035433070845" fill="none" class="treeEdge trait_MA==" id="node#94" stroke="blue"></path><path d="M 160.7874361803786 27.007480314960617 H 149.41436463852452 V27.007480314960617" fill="none" class="treeEdge trait_MQ==" id="node#95" stroke="red"></path><path d="M 132.6235368097757 24.32165354330708 H 131.66283831486228 V31.361457308070847" fill="none" class="treeEdge trait_MQ==" id="node#112" stroke="red"></path><path d="M 137.63115427056792 24.32165354330708 H 132.6235368097757 V24.32165354330708" fill="none" class="treeEdge trait_Mg==" id="node#113" stroke="green"></path><path d="M 137.63115427056795 21.635826771653537 H 127.49462488132032 V26.49864203986219" fill="none" class="treeEdge trait_MQ==" id="node#79" stroke="red"></path><path d="M 137.63115427056795 18.95 H 95.69067179480759 V34.72099480816697" fill="none" class="treeEdge trait_Mg==" id="node#3" stroke="green"></path><text x="207.1" y="360.05"></text><text x="207.1" y="357.3641732283465"></text><text x="207.1" y="354.6783464566929"></text><text x="207.1" y="351.9925196850394"></text><text x="207.1" y="349.30669291338586"></text><text x="207.1" y="346.6208661417323"></text><text x="207.1" y="343.93503937007875"></text><text x="207.1" y="341.2492125984252"></text><text x="207.1" y="338.56338582677165"></text><text x="183.94371809018932" y="335.8775590551181"></text><text x="183.94371809018932" y="333.1917322834646"></text><text x="183.94371809018932" y="330.505905511811"></text><text x="183.94371809018932" y="327.8200787401575"></text><text x="183.94371809018932" y="325.1342519685039"></text><text x="183.94371809018932" y="322.4484251968504"></text><text x="183.94371809018935" y="319.76259842519687"></text><text x="183.94371809018932" y="317.0767716535433"></text><text x="183.94371809018935" y="314.39094488188977"></text><text x="160.78743618037865" y="311.70511811023624"></text><text x="137.63115427056795" y="309.0192913385827"></text><text x="137.63115427056795" y="306.33346456692914"></text><text x="137.63115427056795" y="303.64763779527556"></text><text x="137.63115427056795" y="300.96181102362203"></text><text x="137.63115427056795" y="298.2759842519685"></text><text x="137.63115427056795" y="295.590157480315"></text><text x="137.63115427056795" y="292.9043307086614"></text><text x="207.1" y="290.2185039370079"></text><text x="207.1" y="287.5326771653543"></text><text x="183.94371809018932" y="284.8468503937008"></text><text x="183.94371809018932" y="282.16102362204725"></text><text x="183.9437180901893" y="279.4751968503937"></text><text x="183.9437180901893" y="276.78937007874015"></text><text x="160.7874361803786" y="274.1035433070866"></text><text x="160.78743618037865" y="271.4177165354331"></text><text x="160.78743618037865" y="268.7318897637796"></text><text x="160.78743618037865" y="266.046062992126"></text><text x="183.94371809018932" y="263.3602362204725"></text><text x="160.78743618037865" y="260.67440944881895"></text><text x="160.78743618037865" y="257.98858267716537"></text><text x="160.78743618037865" y="255.30275590551182"></text><text x="137.63115427056795" y="252.61692913385826"></text><text x="160.78743618037865" y="249.93110236220474"></text><text x="160.78743618037865" y="247.24527559055116"></text><text x="160.78743618037865" y="244.5594488188976"></text><text x="160.78743618037865" y="241.87362204724408"></text><text x="137.63115427056792" y="239.18779527559053"></text><text x="137.63115427056792" y="236.501968503937"></text><text x="137.63115427056795" y="233.81614173228346"></text><text x="137.63115427056795" y="231.13031496062993"></text><text x="137.63115427056795" y="228.44448818897638"></text><text x="137.63115427056792" y="225.75866141732286"></text><text x="207.1" y="223.0728346456693"></text><text x="207.1" y="220.38700787401578"></text><text x="207.1" y="217.70118110236223"></text><text x="207.1" y="215.01535433070865"></text><text x="183.94371809018932" y="212.32952755905512"></text><text x="183.94371809018932" y="209.64370078740157"></text><text x="207.1" y="206.95787401574805"></text><text x="207.1" y="204.27204724409447"></text><text x="183.94371809018932" y="201.5862204724409"></text><text x="183.94371809018932" y="198.9003937007874"></text><text x="160.78743618037865" y="196.21456692913384"></text><text x="137.63115427056795" y="193.5287401574803"></text><text x="137.63115427056795" y="190.84291338582676"></text><text x="137.63115427056795" y="188.15708661417324"></text><text x="183.94371809018935" y="185.4712598425197"></text><text x="183.94371809018935" y="182.78543307086616"></text><text x="183.94371809018935" y="180.0996062992126"></text><text x="160.78743618037865" y="177.41377952755903"></text><text x="160.78743618037865" y="174.7279527559055"></text><text x="160.78743618037865" y="172.04212598425195"></text><text x="160.78743618037865" y="169.35629921259843"></text><text x="137.63115427056795" y="166.67047244094488"></text><text x="137.63115427056792" y="163.98464566929135"></text><text x="137.63115427056792" y="161.2988188976378"></text><text x="137.63115427056792" y="158.61299212598428"></text><text x="137.63115427056795" y="155.9271653543307"></text><text x="137.63115427056795" y="153.24133858267714"></text><text x="207.1" y="150.55551181102362"></text><text x="207.1" y="147.86968503937007"></text><text x="207.1" y="145.18385826771654"></text><text x="207.1" y="142.498031496063"></text><text x="207.09999999999994" y="139.81220472440947"></text><text x="207.09999999999994" y="137.12637795275592"></text><text x="207.09999999999994" y="134.44055118110234"></text><text x="207.09999999999994" y="131.7547244094488"></text><text x="207.0999999999999" y="129.06889763779526"></text><text x="183.94371809018926" y="126.38307086614174"></text><text x="160.7874361803786" y="123.6972440944882"></text><text x="207.09999999999994" y="121.01141732283466"></text><text x="207.09999999999994" y="118.32559055118112"></text><text x="183.94371809018926" y="115.63976377952758"></text><text x="183.94371809018926" y="112.953937007874"></text><text x="183.94371809018926" y="110.26811023622047"></text><text x="183.94371809018926" y="107.58228346456693"></text><text x="160.7874361803786" y="104.89645669291339"></text><text x="160.7874361803786" y="102.21062992125985"></text><text x="183.94371809018932" y="99.52480314960631"></text><text x="183.94371809018932" y="96.83897637795278"></text><text x="137.63115427056795" y="94.15314960629924"></text><text x="183.94371809018932" y="91.46732283464566"></text><text x="183.94371809018932" y="88.78149606299212"></text><text x="207.1" y="86.09566929133858"></text><text x="160.78743618037865" y="83.40984251968504"></text><text x="160.78743618037865" y="80.7240157480315"></text><text x="160.78743618037865" y="78.03818897637797"></text><text x="137.63115427056795" y="75.35236220472443"></text><text x="137.63115427056795" y="72.66653543307089"></text><text x="137.63115427056795" y="69.98070866141731"></text><text x="137.63115427056795" y="67.29488188976377"></text><text x="137.63115427056795" y="64.60905511811023"></text><text x="207.1" y="61.923228346456696"></text><text x="207.1" y="59.23740157480316"></text><text x="207.1" y="56.55157480314962"></text><text x="183.94371809018932" y="53.86574803149608"></text><text x="183.94371809018932" y="51.179921259842544"></text><text x="160.7874361803786" y="48.49409448818896"></text><text x="160.7874361803786" y="45.808267716535426"></text><text x="160.78743618037865" y="43.12244094488189"></text><text x="160.7874361803786" y="40.43661417322835"></text><text x="160.7874361803786" y="37.75078740157481"></text><text x="160.78743618037865" y="35.06496062992127"></text><text x="160.78743618037865" y="32.37913385826773"></text><text x="160.78743618037865" y="29.69330708661419"></text><text x="160.7874361803786" y="27.007480314960617"></text><text x="137.63115427056792" y="24.32165354330708"></text><text x="137.63115427056795" y="21.635826771653537"></text><text x="137.63115427056795" y="18.95"></text></svg>